<svg width="30" height="105" viewBox="0 0 30 105" fill="none" xmlns="http://www.w3.org/2000/svg">
<path d="M13.5575 104.409C13.9401 104.787 14.459 105 15 105C15.541 105 16.0599 104.787 16.4425 104.409L29.4272 91.5584C29.7989 91.1775 30.0046 90.6674 29.9999 90.138C29.9953 89.6086 29.7807 89.1021 29.4024 88.7278C29.0241 88.3534 28.5124 88.141 27.9774 88.1364C27.4424 88.1318 26.927 88.3353 26.5422 88.7031L15 100.126L3.45778 88.7031C3.07297 88.3353 2.55758 88.1318 2.02261 88.1364C1.48764 88.141 0.975895 88.3534 0.5976 88.7278C0.219304 89.1021 0.00472588 89.6086 7.71303e-05 90.138C-0.00457162 90.6674 0.201083 91.1775 0.572748 91.5584L13.5575 104.409ZM12.9597 0V102.981H17.0403V0H12.9597Z" fill="white"/>
</svg>
