<svg width="179" height="179" viewBox="0 0 179 179" fill="none" xmlns="http://www.w3.org/2000/svg">
<g clip-path="url(#clip0_10_120)">
<path d="M89.5 177.612C138.163 177.612 177.612 138.163 177.612 89.5C177.612 40.8369 138.163 1.3876 89.5 1.3876C40.8368 1.3876 1.38757 40.8369 1.38757 89.5C1.38757 138.163 40.8368 177.612 89.5 177.612Z" stroke="white" stroke-width="4"/>
<path d="M88.5575 142.409C88.9401 142.787 89.459 143 90 143C90.541 143 91.0599 142.787 91.4425 142.409L104.427 129.558C104.799 129.178 105.005 128.667 105 128.138C104.995 127.609 104.781 127.102 104.402 126.728C104.024 126.353 103.512 126.141 102.977 126.136C102.442 126.132 101.927 126.335 101.542 126.703L90 138.126L78.4578 126.703C78.073 126.335 77.5576 126.132 77.0226 126.136C76.4876 126.141 75.9759 126.353 75.5976 126.728C75.2193 127.102 75.0047 127.609 75.0001 128.138C74.9954 128.667 75.2011 129.178 75.5727 129.558L88.5575 142.409ZM87.9597 38V140.981H92.0403V38H87.9597Z" fill="white"/>
</g>
<defs>
<clipPath id="clip0_10_120">
<rect width="179" height="179" fill="white"/>
</clipPath>
</defs>
</svg>
