<svg width="113" height="37" viewBox="0 0 113 37" fill="none" xmlns="http://www.w3.org/2000/svg">
<path d="M59.183 7.27899C59.2499 8.21939 59.3102 9.07521 59.3726 9.9277C59.3793 10.0234 59.386 10.1169 59.386 10.2171V23.879H56.3544V3.35489C57.124 3.48399 57.9617 3.06553 58.6744 3.61531C59.2823 4.08273 59.8243 4.63139 60.3977 5.14221L64.9707 9.21544C65.8708 10.019 66.7587 10.8347 67.6588 11.6371C69.1021 12.9214 70.5789 14.1679 71.9898 15.4855C73.2904 16.6997 74.5251 17.9851 75.7855 19.2427C75.9193 19.3774 76.0264 19.5432 76.2049 19.6623C75.79 14.2246 76.1569 8.81813 76.0019 3.38605H79.0536V23.8969C78.5037 23.8969 77.9549 23.9169 77.4095 23.8857C77.2533 23.8779 77.086 23.7488 76.9589 23.6364C76.322 23.0733 75.6985 22.4957 75.065 21.927L70.0245 17.3875C68.9962 16.4593 67.9812 15.5167 66.9528 14.5885C65.64 13.4066 64.2982 12.2537 63.0099 11.0428C61.803 9.90766 60.6542 8.71686 59.4786 7.54942C59.4139 7.48265 59.3403 7.42144 59.183 7.27899ZM112.27 23.8991C111.095 23.8991 109.992 23.908 108.89 23.888C108.755 23.8857 108.564 23.7544 108.497 23.6298C107.703 22.1337 106.922 20.6308 106.154 19.1214C106.029 18.8766 105.89 18.7964 105.62 18.7964C101.15 18.8053 96.6833 18.8031 92.2151 18.792C91.8582 18.792 91.7455 18.9812 91.6195 19.226L89.7791 22.7984C89.2159 23.898 89.2181 23.9002 87.9867 23.9002H86.124C86.0972 23.9002 86.0693 23.8924 85.979 23.8813C86.0593 23.7399 86.1285 23.6242 86.1943 23.5029C87.1067 21.8246 88.0123 20.143 88.9325 18.4681C90.3022 15.9685 91.6853 13.4756 93.0572 10.9761C93.9239 9.39795 94.7783 7.81207 95.6416 6.23175C96.1245 5.34476 96.6086 4.45778 97.1094 3.58303C97.1478 3.52567 97.1982 3.47728 97.2571 3.44117C97.316 3.40505 97.3821 3.38208 97.4507 3.37381C98.4988 3.35851 99.547 3.35851 100.595 3.37381C100.657 3.37828 100.718 3.39659 100.772 3.4274C100.826 3.45821 100.873 3.50074 100.908 3.55187C102.292 6.01393 103.668 8.47976 105.038 10.9493L110.469 20.7095C111.052 21.7501 111.644 22.7906 112.27 23.8991ZM98.9242 5.53729L93.2881 16.239H104.593L98.9242 5.53729ZM19.0682 23.8824H0.0832367V3.38271H3.42493V21.0979H19.0682V23.8835V23.8824ZM47.9477 7.24449C48.5389 7.9011 48.7285 8.69794 48.8635 9.49923C49.2427 11.7406 49.014 13.9442 48.2946 16.0876C47.7449 17.7231 46.8504 19.222 45.6712 20.4836C43.6267 22.6983 41.1283 24.0894 38.1647 24.6158C35.9451 25.0098 33.7656 24.7582 31.662 23.9759C28.6482 22.8563 26.3305 20.9132 24.7656 18.0886C23.5052 15.815 23.0468 13.3699 23.2442 10.8147C23.4004 8.80366 24.0551 6.92731 25.1091 5.19229C26.1353 3.50291 27.4581 2.11957 29.1647 1.1046C29.3157 1.00512 29.4923 0.951037 29.6733 0.948792C29.2639 1.32718 28.8501 1.69889 28.4464 2.08061C26.6528 3.77 25.6713 5.87116 25.2831 8.27392C24.8849 10.7401 25.2407 13.0961 26.3784 15.3186C27.65 17.8026 29.5885 19.5966 32.1561 20.7273C33.6763 21.4031 35.3317 21.7214 36.9947 21.6577C39.6158 21.5631 41.9682 20.7017 44.0238 19.0513C46.3226 17.2039 47.6667 14.8022 48.1976 11.932C48.4095 10.7857 48.2455 9.64168 48.0983 8.50095C48.0437 8.0825 47.9979 7.66294 47.9477 7.24449ZM71.0518 36.1777C70.6146 36.1644 70.145 36.2846 69.9108 36.1032C69.7212 35.9552 69.8093 35.4466 69.7691 35.0404C69.6408 35.0737 69.4936 35.0693 69.4033 35.1394C67.9087 36.2857 66.1977 36.4916 64.3918 36.3024C63.4725 36.2138 62.587 35.9099 61.8075 35.4154C60.2382 34.4171 59.7307 32.474 60.6955 31.0239C61.3402 30.0534 62.2905 29.4936 63.4014 29.211C64.8402 28.8448 66.2902 28.8137 67.7112 29.2822C68.2522 29.4603 68.7441 29.7797 69.2616 30.0312C69.41 30.1024 69.5672 30.158 69.8104 30.2571V29.7185C69.8104 28.7146 69.8204 27.7108 69.8048 26.708C69.8003 26.4176 69.8963 26.3241 70.184 26.3297C71.2425 26.3519 71.0462 26.225 71.0496 27.1643C71.0585 29.9956 71.0529 32.8268 71.0529 35.6591L71.0518 36.1766V36.1777ZM65.5898 29.5983C64.7915 29.5573 63.9963 29.7253 63.2832 30.0857C62.2726 30.5865 61.5978 31.3655 61.5476 32.5363C61.5008 33.6715 62.0629 34.4895 63.0043 35.0726C64.5502 36.0297 67.1591 35.9451 68.6482 34.8946C70.2878 33.7371 70.309 31.6004 68.6838 30.4274C67.7904 29.783 66.7654 29.5738 65.5909 29.5983H65.5898ZM103.398 36.3847C102.302 36.3458 101.231 36.2 100.225 35.7448C99.1283 35.2474 98.2694 34.5051 97.9515 33.3042C97.7062 32.3805 97.9716 31.5414 98.5706 30.8113C99.4595 29.7229 100.685 29.2655 102.015 29.0563C103.32 28.8493 104.628 28.9005 105.899 29.2866C107.014 29.625 107.998 30.177 108.631 31.2109C109.318 32.3304 109.115 33.7872 108.176 34.7132C107.167 35.7081 105.928 36.1455 104.552 36.2857C104.168 36.3224 103.784 36.3502 103.398 36.3859V36.3847ZM103.405 29.6038C103.229 29.5949 103.054 29.5949 102.878 29.6038C101.742 29.7107 100.694 30.029 99.8945 30.907C98.9922 31.8975 99.019 33.4856 99.9514 34.4461C100.685 35.2028 101.6 35.559 102.628 35.668C103.827 35.7949 105 35.7148 106.074 35.116C107.024 34.5852 107.691 33.8329 107.694 32.6732C107.697 31.5225 107.074 30.7434 106.117 30.2026C105.297 29.7396 104.4 29.5626 103.406 29.6016L103.405 29.6038ZM0.626429 34.0788H1.8422C2.14112 35.2385 3.10593 35.5 4.0752 35.6814C5.28204 35.9084 6.49112 35.8105 7.66451 35.4455C8.08278 35.3152 8.49212 35.0927 8.61258 34.6163C8.75981 34.0321 8.46424 33.5624 7.79166 33.4133C6.82908 33.1996 5.84977 33.0716 4.88274 32.8769C3.92914 32.6972 2.98263 32.4819 2.0452 32.2314C1.42951 32.06 0.858429 31.705 0.849506 30.9805C0.840583 30.2371 1.39827 29.8175 2.00951 29.5337C3.13047 29.0129 4.33174 28.8804 5.55197 28.9595C6.58147 29.0262 7.60205 29.1687 8.51666 29.7118C9.02639 30.0156 9.42235 30.4051 9.57293 31.0829C9.18924 31.0829 8.83901 31.0918 8.49101 31.0762C8.41404 31.0729 8.2947 30.995 8.27462 30.9293C8.05154 30.1859 7.45147 29.8954 6.78224 29.7429C5.60328 29.4758 4.41316 29.4591 3.2342 29.7619C3.11517 29.7931 2.99939 29.8356 2.88843 29.8887C2.30285 30.167 2.13443 30.4352 2.19689 31.045C2.24708 31.5492 2.64304 31.7706 3.05239 31.8664C3.88112 32.0589 4.72658 32.1735 5.56201 32.3327C6.55693 32.5219 7.56189 32.6855 8.54231 32.9359C8.91708 33.0305 9.29631 33.2809 9.57293 33.5591C10.1262 34.1222 10.0637 34.7454 9.4837 35.2707C8.93381 35.7649 8.25789 36.0108 7.5552 36.1499C6.01485 36.4582 4.46335 36.4894 2.93527 36.0843C2.06304 35.8528 1.23654 35.5056 0.783698 34.6341C0.744382 34.5627 0.712609 34.4874 0.688891 34.4093C0.666583 34.3214 0.655429 34.2279 0.626429 34.0788ZM39.7887 29.1141C39.7976 29.2922 39.8088 29.4391 39.8088 29.5871C39.8088 30.8792 39.7999 32.1713 39.8166 33.4634C39.8199 33.8195 39.8679 34.1734 39.9582 34.5173C40.0921 35.0092 40.4323 35.3687 40.9219 35.5044C42.556 35.9607 44.161 35.9663 45.64 35.0003C46.1932 34.6386 46.4989 34.11 46.4922 33.4111C46.4743 32.1335 46.4989 30.8536 46.4799 29.5749C46.4743 29.2043 46.6048 29.0796 46.9595 29.1108C47.1904 29.132 47.4246 29.1153 47.7079 29.1153C47.7191 29.2822 47.7358 29.4269 47.7369 29.5704C47.7369 31.6182 47.728 33.667 47.7459 35.7159C47.7492 36.0876 47.6566 36.2501 47.2662 36.2022C47.0499 36.1755 46.829 36.1978 46.5412 36.1978V35.4065C46.5435 35.1227 46.4163 35.057 46.1821 35.2006C46.007 35.3086 45.8497 35.4443 45.6701 35.5456C43.8074 36.5917 41.8667 36.6496 39.908 35.8906C39.0615 35.5634 38.6064 34.8367 38.5874 33.9252C38.5573 32.4406 38.5841 30.956 38.5752 29.4714C38.5752 29.2021 38.6655 29.0975 38.9354 29.1119C39.2042 29.1275 39.4775 29.1141 39.7887 29.1141ZM24.2804 29.1186H26.4799C26.616 29.635 26.5881 29.6751 26.1085 29.6751H24.3172C24.306 29.8108 24.2904 29.9166 24.2904 30.0212C24.2882 31.7128 24.2882 33.4033 24.2904 35.0938C24.2904 35.5534 24.4444 35.7515 24.9162 35.7838C25.4348 35.8172 25.9579 35.7916 26.5223 35.7916C26.635 36.0275 26.5524 36.2256 26.2267 36.2367C25.4739 36.2623 24.7154 36.3113 23.9703 36.2367C23.3312 36.1744 23.0546 35.7637 23.0412 35.0326C23.0189 33.8507 23.03 32.6688 23.0278 31.4869V29.6828H21.338L21.3045 29.1119C21.7786 29.1119 22.2125 29.0975 22.6475 29.1175C22.9375 29.1297 23.039 29.0251 23.0323 28.7391C23.0167 28.1916 23.0278 27.644 23.0278 27.0697H24.2815V29.1186H24.2804ZM84.0873 29.1153H85.0398C85.3544 29.1153 85.2852 29.3579 85.2852 29.5348C85.2897 31.2376 85.2897 32.9392 85.2875 34.6408V35.175C85.2875 36.3146 85.2875 36.3146 84.0873 36.1555V29.1153ZM84.0739 27.4559V26.3397C84.4052 26.3397 84.7197 26.3208 85.0309 26.3508C85.1213 26.3597 85.2607 26.4966 85.2752 26.5879C85.3945 27.3914 85.3343 27.4559 84.5357 27.4537L84.0739 27.4559Z" fill="white"/>
</svg>
