<svg width="35" height="21" viewBox="0 0 35 21" fill="none" xmlns="http://www.w3.org/2000/svg">
<path fill-rule="evenodd" clip-rule="evenodd" d="M34.1979 1.67419C34.44 0.877937 34.1979 0.291687 33.0385 0.291687H29.2104C28.2362 0.291687 27.7871 0.797729 27.5435 1.35627C27.5435 1.35627 25.5967 6.0171 22.839 9.0446C21.9465 9.92252 21.541 10.2011 21.054 10.2011C20.8104 10.2011 20.4444 9.92252 20.4444 9.12481V1.67419C20.4444 0.71752 20.176 0.291687 19.3652 0.291687H13.3452C12.7371 0.291687 12.371 0.73502 12.371 1.15648C12.371 2.0621 13.7506 2.2721 13.8921 4.82127V10.36C13.8921 11.5748 13.669 11.795 13.1819 11.795C11.884 11.795 8.72667 7.11231 6.85271 1.75439C6.48958 0.711687 6.12208 0.291687 5.14354 0.291687H1.3125C0.21875 0.291687 0 0.797729 0 1.35627C0 2.35085 1.29792 7.29169 6.04479 13.8265C9.20937 18.289 13.6646 20.7084 17.7231 20.7084C20.1571 20.7084 20.4575 20.1717 20.4575 19.2456V15.8725C20.4575 14.7977 20.6879 14.5834 21.4594 14.5834C22.0281 14.5834 23.0008 14.8634 25.2729 17.0144C27.8687 19.565 28.296 20.7084 29.7573 20.7084H33.5854C34.6792 20.7084 35.2275 20.1717 34.9125 19.11C34.5654 18.0542 33.3258 16.5215 31.6823 14.7029C30.7898 13.6675 29.451 12.5519 29.0442 11.9934C28.4769 11.2773 28.6387 10.9579 29.0442 10.3206C29.0442 10.3206 33.7108 3.86606 34.1965 1.67419H34.1979Z" fill="white"/>
</svg>
