<svg width="35" height="25" viewBox="0 0 35 25" fill="none" xmlns="http://www.w3.org/2000/svg">
<path d="M34.2708 4.48938C34.0726 3.78243 33.6866 3.14239 33.1537 2.6373C32.6058 2.11668 31.9343 1.74427 31.2025 1.55522C28.4637 0.833342 17.4912 0.833343 17.4912 0.833343C12.9169 0.781298 8.34373 1.0102 3.79748 1.51876C3.06568 1.72178 2.39539 2.10251 1.84623 2.62709C1.30665 3.14626 0.915818 3.78647 0.711651 4.48793C0.221203 7.13005 -0.0170896 9.8128 -1.54685e-05 12.5C-0.0175155 15.1848 0.220193 17.8667 0.711651 20.5121C0.911443 21.2106 1.30082 21.8479 1.84186 22.3627C2.3829 22.8775 3.05665 23.2494 3.79748 23.4463C6.57269 24.1667 17.4912 24.1667 17.4912 24.1667C22.0714 24.2188 26.6504 23.9899 31.2025 23.4813C31.9343 23.2922 32.6058 22.9198 33.1537 22.3992C33.6864 21.8942 34.072 21.2541 34.2694 20.5471C34.7726 17.906 35.0173 15.2221 35 12.5336C35.0378 9.8336 34.7934 7.13708 34.2708 4.48793V4.48938ZM14.0029 17.4933V7.50813L23.1321 12.5015L14.0029 17.4933Z" fill="white"/>
</svg>
